:SAMPLES-PER-SECOND 30
:FULLY-SPECIFIED
:DEGREES
249
root  -4.41563 40.8294 -0.114154 -169.771 -89.0763 168.521
RightUpLeg  8.1695 -2.34813 -2.25894
RightLeg  -2.56383 -18.4938 0.614357
RightFoot  -2.44429 -0.308235 3.66842
RightToes  -3.10096e-008 1.75238e-005 3.56266e-009
Spine  -12.5098 -1.06638 -9.18717
Spine1  17.7392 -3.27661 10.2125
HEad  -14.8797 -1.49206 6.98043
LeftShoulder1  2.98771 -4.83627 -29.7996
LeftArm  -26.231 26.9206 -50.2873
LeftForeArm  2.08353 -55.8339 -16.5899
LeftHand  -0.0410735 -3.19386 0.794769
RightShoulder  3.52349 6.09307 30.8198
RightArm  -5.0606 -28.5834 39.6825
RightForeArm  12.0944 52.8522 13.917
RightHand  -0.634625 7.19977 -6.18138
LeftUpLeg  5.97154 1.64767 2.17168
LeftLeg  -0.487281 11.8585 -0.441735
LeftFoot  -2.9784 0.205512 -2.57652
LeftToes  4.7633e-008 1.48299e-008 1.30754e-009
250
root  -4.25336 40.8333 -0.130314 -176.196 -88.9256 175.244
RightUpLeg  7.49602 -2.14582 -2.0746
RightLeg  -2.45219 -18.5588 0.561766
RightFoot  -2.28267 -0.306558 3.62956
RightToes  -3.10096e-008 1.75238e-005 3.56266e-009
Spine  -11.5213 -0.701047 -8.77379
Spine1  16.2896 -2.70386 9.67575
HEad  -14.5949 -2.98501 6.99468
LeftShoulder1  3.05272 -5.06317 -29.6063
LeftArm  -25.0851 25.5343 -48.3033
LeftForeArm  4.12719 -59.7606 -19.3961
LeftHand  0.0972153 -3.6734 -0.993538
RightShoulder  3.53725 6.29131 30.207
RightArm  -3.03909 -26.1838 37.1455
RightForeArm  11.9351 57.4359 16.8702
RightHand  -0.312254 6.57215 -3.35291
LeftUpLeg  5.19616 1.70317 2.32455
LeftLeg  -0.0560211 11.9378 -0.420857
LeftFoot  -2.94633 0.212122 -2.65138
LeftToes  4.7633e-008 1.48299e-008 1.30754e-009
251
root  -4.10349 40.8435 -0.149933 -178.136 -88.8851 177.603
RightUpLeg  6.80315 -1.98601 -1.94532
RightLeg  -2.53072 -18.7891 0.62265
RightFoot  -2.04101 -0.294502 3.41918
RightToes  -3.10096e-008 1.75238e-005 3.56266e-009
Spine  -10.4544 -0.405929 -8.34651
Spine1  14.6561 -2.17873 9.00965
HEad  -14.9522 -4.95056 6.79178
LeftShoulder1  3.0042 -5.06384 -29.025
LeftArm  -24.0798 23.7348 -46.3732
LeftForeArm  7.64076 -64.2311 -23.6221
LeftHand  0.237921 -4.39829 -2.54942
RightShoulder  3.37126 6.19779 28.8015
RightArm  -0.668521 -23.4242 34.3226
RightForeArm  11.0356 65.3767 24.894
RightHand  0.00115993 5.29654 -0.28356
LeftUpLeg  4.48603 1.7495 2.43865
LeftLeg  -0.0428486 11.96 -0.527296
LeftFoot  -2.67151 0.205191 -2.49359
LeftToes  4.7633e-008 1.48299e-008 1.30754e-009
252
root  -3.93171 40.8664 -0.18145 -177.475 -88.9968 177.627
RightUpLeg  5.94761 -1.87488 -1.87646
RightLeg  -2.89074 -19.0239 0.858631
RightFoot  -1.61257 -0.281496 3.1526
RightToes  -3.10096e-008 1.75238e-005 3.56266e-009
Spine  -9.25057 -0.282667 -7.97838
Spine1  12.5482 -1.72393 8.0907
HEad  -15.1235 -6.97364 6.72535
LeftShoulder1  2.89748 -5.04887 -27.8111
LeftArm  -23.6575 22.1234 -44.7899
LeftForeArm  14.0529 -68.8135 -29.7187
LeftHand  0.272749 -5.48659 -2.60576
RightShoulder  3.05284 5.72378 27.0965
RightArm  1.88128 -19.3384 31.2877
RightForeArm  18.3834 73.3686 41.4042
RightHand  0.255424 4.11465 2.81275
LeftUpLeg  3.5749 1.39534 2.3384
LeftLeg  -0.352351 12.2554 -0.394858
LeftFoot  -2.16877 0.227051 -2.6688
LeftToes  4.7633e-008 1.48299e-008 1.30754e-009
253
root  -3.77608 40.8894 -0.225034 -167.711 -88.9478 168.772
RightUpLeg  4.62571 -1.76373 -1.94234
RightLeg  -2.77204 -19.1291 0.851893
RightFoot  -1.35316 -0.284189 3.11391
RightToes  -3.10096e-008 1.75238e-005 3.56266e-009
Spine  -8.40669 -0.229693 -8.04258
Spine1  10.5703 -1.38854 7.47771
HEad  -15.0547 -9.17294 6.90938
LeftShoulder1  2.78968 -4.99119 -26.73
LeftArm  -24.1736 20.432 -43.3633
LeftForeArm  21.1481 -72.301 -36.867
LeftHand  0.427619 -5.62769 -4.17183
RightShoulder  2.86577 5.62261 25.3462
RightArm  2.83867 -13.5046 28.3077
RightForeArm  36.0054 77.6563 67.3118
RightHand  0.527951 4.45053 5.92159
LeftUpLeg  2.67662 1.14261 2.21226
LeftLeg  -1.09858 12.6012 -0.61016
LeftFoot  -1.51056 0.240753 -2.69425
LeftToes  4.7633e-008 1.48299e-008 1.30754e-009
254
root  -3.58789 40.908 -0.250301 -168.556 -89.1334 170.326
RightUpLeg  3.71858 -1.59397 -1.82701
RightLeg  -3.12438 -19.4644 1.07754
RightFoot  -0.867378 -0.281149 3.00071
RightToes  -3.10096e-008 1.75238e-005 3.56266e-009
Spine  -6.66683 -0.211049 -7.26788
Spine1  7.90597 -1.0052 5.97607
HEad  -14.8572 -13.0846 6.4127
LeftShoulder1  2.59684 -4.78457 -25.1696
LeftArm  -24.2679 18.918 -42.5403
LeftForeArm  28.0101 -74.5126 -43.6652
LeftHand  0.476933 -6.59727 -4.2684
RightShoulder  2.76792 5.76895 23.7101
RightArm  1.48507 -6.52557 25.1944
RightForeArm  48.3141 78.3069 87.3536
RightHand  0.553991 4.40286 6.26958
LeftUpLeg  1.67263 0.952031 2.26429
LeftLeg  -1.32754 12.6748 -0.595077
LeftFoot  -1.04602 0.257619 -2.78934
LeftToes  4.7633e-008 1.48299e-008 1.30754e-009
255
root  -3.38088 40.924 -0.249448 -162.432 -88.8548 164.525
RightUpLeg  2.88511 -1.6398 -2.01781
RightLeg  -2.89425 -19.1084 1.01823
RightFoot  -0.634912 -0.276925 2.90808
RightToes  -3.10096e-008 1.75238e-005 3.56266e-009
Spine  -4.48993 0.148736 -6.38809
Spine1  5.34544 -0.355445 4.50541
HEad  -14.8499 -18.6757 5.18534
LeftShoulder1  2.51679 -4.73104 -24.3626
LeftArm  -24.1661 17.5444 -41.5931
LeftForeArm  33.255 -75.8999 -49.7487
LeftHand  0.475223 -6.8378 -4.15172
RightShoulder  2.53121 5.68483 21.2429
RightArm  -3.97928 0.697505 23.0193
RightForeArm  39.4814 77.9844 87.5423
RightHand  0.551303 4.12427 6.44626
LeftUpLeg  1.28999 0.621935 2.01311
LeftLeg  -1.92854 13.3442 -0.653163
LeftFoot  -0.502767 0.281448 -2.93617
LeftToes  4.7633e-008 1.48299e-008 1.30754e-009
256
root  -3.20615 40.9357 -0.231293 -164.794 -88.7548 167.007
RightUpLeg  2.50847 -1.54646 -1.98769
RightLeg  -3.03263 -19.1222 1.02978
RightFoot  -0.262056 -0.273792 2.80293
RightToes  -3.10096e-008 1.75238e-005 3.56266e-009
Spine  -2.84193 0.375594 -4.37255
Spine1  3.91839 0.336438 1.63744
HEad  -15.0795 -25.9532 4.85821
LeftShoulder1  2.45865 -4.75632 -23.524
LeftArm  -24.7255 16.4717 -41.2892
LeftForeArm  36.2402 -76.4476 -52.7059
LeftHand  0.488378 -6.83394 -4.27789
RightShoulder  2.20446 5.24005 18.7583
RightArm  -12.0783 7.30418 21.0426
RightForeArm  15.3426 77.1723 71.9949
RightHand  0.559591 3.89392 6.72879
LeftUpLeg  0.877983 0.610904 2.03629
LeftLeg  -1.91847 13.4734 -0.714667
LeftFoot  -0.297101 0.287942 -2.95468
LeftToes  4.7633e-008 1.48299e-008 1.30754e-009
257
root  -3.0443 40.9413 -0.222728 -166.912 -88.8258 169.26
RightUpLeg  2.16914 -1.46181 -1.92828
RightLeg  -3.1901 -19.2798 1.11842
RightFoot  0.0644362 -0.283596 2.83484
RightToes  -3.10096e-008 1.75238e-005 3.56266e-009
Spine  -1.43262 0.416265 -2.36998
Spine1  3.01528 0.860297 -1.37308
HEad  -15.4138 -32.7569 4.81051
LeftShoulder1  2.41346 -4.76057 -22.93
LeftArm  -25.1985 16.0468 -40.9959
LeftForeArm  38.0173 -76.8228 -55.1989
LeftHand  0.481274 -6.72188 -4.25569
RightShoulder  1.93349 4.82261 16.5668
RightArm  -21.2129 13.2172 17.5512
RightForeArm  -12.1292 74.5607 52.9145
RightHand  0.440211 3.83362 5.26376
LeftUpLeg  0.359591 0.702902 2.1619
LeftLeg  -1.72531 13.3206 -0.784568
LeftFoot  -0.126935 0.280837 -2.82756
LeftToes  4.7633e-008 1.48299e-008 1.30754e-009
258
root  -2.91713 40.9431 -0.212499 -165.27 -89.013 167.998
RightUpLeg  1.59089 -1.38298 -1.91208
RightLeg  -3.26057 -19.596 1.17666
RightFoot  0.263609 -0.279198 2.7019
RightToes  -3.10096e-008 1.75238e-005 3.56266e-009
Spine  -0.510338 0.435426 -0.170611
Spine1  2.38327 1.4485 -4.7824
HEad  -15.5998 -38.9341 4.67464
LeftShoulder1  2.33405 -4.61337 -22.4532
LeftArm  -24.7301 16.2213 -40.7066
LeftForeArm  37.6262 -76.7921 -55.1089
LeftHand  0.499997 -6.81955 -4.39408
RightShoulder  1.55108 3.84395 14.2727
RightArm  -31.2383 18.6924 13.3229
RightForeArm  -34.6364 68.5646 34.7467
RightHand  0.355155 3.26405 4.5276
LeftUpLeg  -0.267472 0.637192 2.17333
LeftLeg  -1.78022 13.2131 -0.839846
LeftFoot  0.123859 0.275694 -2.75726
LeftToes  4.7633e-008 1.48299e-008 1.30754e-009
259
root  -2.80853 40.95 -0.215191 -162.21 -89.3383 165.83
RightUpLeg  0.597259 -1.13667 -1.77238
RightLeg  -3.55499 -20.1965 1.32895
RightFoot  0.644894 -0.272823 2.57675
RightToes  -3.10096e-008 1.75238e-005 3.56266e-009
Spine  0.269237 0.296557 1.90951
Spine1  1.14299 1.79958 -8.06802
HEad  -14.4083 -43.9598 3.88829
LeftShoulder1  2.2488 -4.42286 -22.0488
LeftArm  -24.4548 17.8094 -40.8236
LeftForeArm  36.5589 -76.5591 -53.5161
LeftHand  0.505623 -6.76409 -4.47061
RightShoulder  1.22296 3.02994 11.6228
RightArm  -42.5402 22.8703 9.1496
RightForeArm  -49.6568 59.1399 22.2613
RightHand  0.28433 2.90663 3.74854
LeftUpLeg  -1.42661 0.626895 2.32219
LeftLeg  -1.88064 12.9499 -0.97009
LeftFoot  0.465166 0.265677 -2.59741
LeftToes  4.7633e-008 1.48299e-008 1.30754e-009
